<svg width="97" height="128" viewBox="0 0 97 128" fill="none" xmlns="http://www.w3.org/2000/svg">
<path fill-rule="evenodd" clip-rule="evenodd" d="M58.5871 43.5735L48.2566 27.6097L37.9381 43.555L19.6299 39.6326L26.7394 72.8171C28.9088 82.9433 37.8576 90.1779 48.2136 90.1779L48.2684 90.1779L48.3057 90.1778L48.343 90.1779L48.3978 90.1779C58.7539 90.1779 67.7026 82.9433 69.8721 72.8171L76.9816 39.6326L58.5871 43.5735ZM96.5046 20.1096L84.5393 75.9594C80.888 93.002 65.8272 105.178 48.3978 105.178L48.3057 105.178L48.2136 105.178C30.7843 105.178 15.7234 93.002 12.0722 75.9594L0.106873 20.1096L30.9651 26.7207L48.2566 0L65.56 26.7392L96.5046 20.1096Z" fill="#FFC107"/>
<path fill-rule="evenodd" clip-rule="evenodd" d="M96.1851 127.591L1.31134e-06 127.591L0 112.591L96.1851 112.591L96.1851 127.591Z" fill="#FF5722"/>
</svg>
